<?xml version="1.0" standalone="no"?>
<!DOCTYPE svg PUBLIC "-//W3C//DTD SVG 20010904//EN"
 "http://www.w3.org/TR/2001/REC-SVG-20010904/DTD/svg10.dtd">
<svg version="1.0" xmlns="http://www.w3.org/2000/svg"
 width="287.000000pt" height="120.000000pt" viewBox="0 0 287.000000 120.000000"
 preserveAspectRatio="xMidYMid meet">
<metadata>
Created by potrace 1.10, written by Peter Selinger 2001-2011
</metadata>
<g transform="translate(0.000000,120.000000) scale(0.100000,-0.100000)"
fill="#09f970" stroke="none">
<path d="M2165 1085 l-7 -67 -21 20 c-12 11 -36 27 -53 35 l-32 16 -4 -87 c-4
-68 -13 -105 -38 -170 -18 -45 -35 -81 -37 -79 -1 2 7 41 18 87 15 58 20 104
17 156 -5 108 -23 112 -25 5 -1 -105 -37 -262 -88 -387 -19 -48 -35 -89 -35
-90 0 -2 12 4 28 12 35 18 123 18 167 0 30 -13 65 -58 65 -86 0 -17 -76 -12
-91 6 -33 40 -109 36 -109 -5 0 -15 11 -23 43 -32 99 -27 136 -41 149 -57 38
-44 25 -122 -25 -152 -18 -11 -41 -20 -52 -20 -16 0 -17 -2 -6 -9 20 -13 115
-4 159 14 36 16 126 84 119 91 -2 2 -28 -6 -57 -19 -32 -14 -48 -26 -39 -29
17 -6 -54 -38 -85 -38 -17 1 -14 5 15 20 19 10 41 26 48 34 8 9 18 16 23 16 5
0 25 8 46 17 20 9 50 18 65 20 36 4 77 33 116 82 25 31 46 44 112 67 93 32
124 62 134 128 10 61 -1 74 -34 43 -14 -14 -46 -37 -71 -52 -25 -15 -34 -23
-20 -19 14 4 42 18 62 30 21 13 40 24 43 24 3 0 5 -13 5 -29 0 -44 -41 -86
-102 -105 -76 -24 -148 -59 -148 -72 0 -6 -9 -19 -20 -29 -11 -10 -20 -15 -20
-11 0 8 -120 -52 -144 -73 -15 -12 -18 -13 -14 -2 2 8 39 36 81 61 91 55 131
91 148 134 12 30 97 118 121 124 17 5 63 38 79 59 8 10 -4 4 -26 -13 -67 -51
-67 -51 -61 -3 3 24 3 58 -1 76 l-8 32 -35 -42 -35 -42 34 24 34 25 -6 -58
c-5 -55 -36 -109 -58 -103 -10 3 -171 -104 -165 -110 4 -4 54 24 66 37 3 3 17
13 32 23 l28 17 -10 -26 c-19 -49 -52 -85 -116 -125 -35 -22 -66 -40 -70 -39
-3 1 -18 -9 -32 -23 -32 -29 -72 -51 -72 -40 0 5 12 16 28 26 15 9 47 36 72
58 l45 42 -67 -47 c-37 -25 -68 -46 -70 -46 -2 0 -4 10 -5 21 -1 12 -13 34
-27 48 l-25 27 22 14 c12 8 29 18 38 22 8 3 53 50 98 105 l83 98 -96 -97
c-113 -114 -149 -132 -51 -25 86 92 120 141 136 197 7 25 25 63 39 85 30 44
70 120 70 131 0 4 -17 -20 -37 -53 -21 -34 -46 -72 -55 -85 l-17 -23 -1 25 c0
14 -11 43 -24 64 l-23 39 -7 -34 c-3 -19 -16 -52 -27 -74 -28 -52 -90 -137
-96 -131 -3 2 11 33 30 68 39 69 93 213 77 203 -6 -3 -10 -11 -10 -17 0 -40
-94 -207 -164 -293 l-41 -50 48 43 c26 24 51 41 56 38 17 -11 118 129 128 176
8 39 20 35 32 -9 27 -96 4 -159 -97 -264 l-69 -73 -34 36 c-40 42 -96 60 -162
54 l-45 -4 24 61 c13 33 24 67 24 73 0 7 11 23 25 36 47 44 120 255 100 288
-9 14 12 12 44 -5 35 -17 75 -98 67 -131 -4 -13 -7 -26 -7 -29 -2 -18 -51
-130 -68 -154 -12 -16 -21 -32 -21 -37 0 -4 -12 -23 -26 -43 -19 -26 -21 -30
-6 -16 35 33 109 172 127 240 16 59 16 68 2 111 -11 35 -13 53 -5 67 13 24 13
96 0 109 -6 6 -12 -16 -17 -57z m-150 -645 c3 -5 -1 -10 -9 -10 -9 0 -16 5
-16 10 0 6 4 10 9 10 6 0 13 -4 16 -10z m351 -99 c-15 -16 -56 -35 -56 -26 0
4 63 45 69 45 2 0 -4 -9 -13 -19z"/>
<path d="M2236 1086 c-3 -29 -12 -72 -20 -94 -9 -23 -11 -42 -7 -42 10 0 41
73 41 95 0 8 4 15 9 15 5 0 7 10 4 21 -5 18 -3 20 13 11 30 -16 63 -56 67 -80
2 -12 6 -25 10 -28 10 -10 9 -52 -2 -72 -4 -9 -11 -30 -14 -47 -5 -23 -2 -20
13 13 15 33 20 63 18 124 0 48 -4 74 -9 65 -7 -12 -15 -8 -45 19 -64 61 -70
61 -78 0z"/>
<path d="M2407 1014 c-22 -45 -21 -55 2 -27 10 11 23 18 29 14 17 -10 52 -93
51 -121 l0 -25 -11 23 c-13 26 -28 29 -28 4 0 -20 -40 -83 -78 -124 -14 -16
-21 -28 -16 -28 13 0 70 69 85 104 7 14 15 26 19 26 13 0 31 -82 24 -113 -8
-39 -57 -101 -109 -138 -49 -36 -201 -179 -160 -151 17 11 46 36 64 56 42 43
52 45 41 7 -13 -48 -31 -75 -74 -112 -22 -20 -52 -47 -66 -59 -23 -20 -22 -20
10 2 35 23 111 95 141 133 8 11 42 44 75 74 l59 53 -67 -51 -67 -50 11 31 c6
17 27 45 47 62 100 86 126 133 112 196 -5 22 -7 58 -4 80 4 30 -1 53 -21 94
-38 77 -49 83 -69 40z"/>
<path d="M2530 927 c0 -1 -4 -18 -10 -37 -8 -29 -8 -32 4 -20 19 20 30 60 17
60 -6 0 -11 -1 -11 -3z"/>
<path d="M2584 895 c-4 -11 -18 -36 -31 -55 l-25 -35 31 33 c37 39 44 40 59 7
20 -43 14 -99 -13 -141 l-26 -39 31 33 c42 45 43 97 5 172 -20 39 -24 42 -31
25z"/>
<path d="M2526 783 c-6 -14 -5 -15 5 -6 7 7 10 15 7 18 -3 3 -9 -2 -12 -12z"/>
<path d="M290 615 l0 -35 50 0 c54 0 61 10 34 48 -11 15 -25 22 -50 22 -32 0
-34 -2 -34 -35z m60 5 c13 -8 12 -10 -2 -10 -10 0 -21 0 -25 -1 -4 0 -9 4 -11
10 -5 14 18 14 38 1z"/>
<path d="M561 550 c-43 -10 -81 -39 -105 -79 -27 -46 -25 -154 4 -210 53 -105
231 -105 285 -1 20 40 20 40 -24 40 -23 0 -48 -8 -64 -20 -36 -29 -81 -26
-106 6 -32 41 -30 136 4 169 29 30 54 31 88 4 20 -15 38 -19 73 -17 l46 3 -24
34 c-39 59 -108 86 -177 71z m117 -40 c18 -11 30 -24 27 -29 -3 -5 1 -12 7
-14 8 -3 6 -6 -5 -6 -9 -1 -34 8 -54 19 -48 25 -74 25 -106 -1 -53 -41 -58
-153 -10 -210 21 -25 32 -29 74 -29 33 0 51 5 55 14 3 8 16 13 30 12 28 -1 30
-8 9 -26 -8 -7 -15 -9 -15 -4 0 4 -6 1 -12 -8 -7 -9 -30 -19 -51 -22 -40 -8
-107 9 -107 25 0 6 -4 7 -10 4 -5 -3 -10 -2 -10 4 0 5 -8 17 -17 27 -12 12
-19 38 -21 84 -5 78 20 140 66 164 39 22 111 20 150 -4z"/>
<path d="M945 554 c-6 -1 -22 -5 -36 -8 -31 -7 -79 -52 -79 -75 0 -13 9 -17
43 -16 23 0 48 6 55 13 14 13 60 16 86 6 9 -3 16 -15 16 -25 0 -21 -35 -39
-78 -39 -39 -1 -109 -35 -122 -61 -15 -27 -15 -91 -1 -117 18 -35 78 -55 142
-49 118 10 149 53 149 202 0 106 -7 128 -48 149 -25 13 -105 26 -127 20z m114
-41 c38 -22 45 -54 39 -165 -5 -75 -7 -83 -35 -108 -20 -18 -46 -29 -79 -33
-55 -8 -110 4 -106 22 1 7 -2 10 -8 6 -18 -11 -34 42 -24 83 5 20 13 35 18 34
5 -2 12 0 15 6 7 11 91 32 123 31 13 0 -5 -9 -38 -20 -51 -16 -64 -24 -74 -50
-11 -27 -11 -33 7 -57 23 -31 89 -48 97 -25 3 7 12 13 19 13 37 0 54 105 23
139 -15 17 -15 19 -1 24 18 8 19 36 3 68 -11 20 -21 24 -55 23 -23 0 -49 -6
-57 -13 -17 -14 -46 -8 -46 9 0 31 130 40 179 13z m-27 -183 c-7 -68 -77 -104
-116 -61 -23 25 -13 56 22 69 42 15 86 30 92 31 3 1 4 -17 2 -39z"/>
<path d="M290 370 l0 -180 48 0 47 0 -2 167 c-2 184 -5 193 -65 193 l-28 0 0
-180z m65 -5 c0 -143 -1 -150 -20 -150 -19 0 -20 7 -22 135 -2 150 1 173 25
168 15 -3 17 -21 17 -153z"/>
<path d="M1293 534 c-48 -17 -91 -60 -103 -103 -5 -20 -10 -82 -10 -138 l0
-103 48 0 47 0 0 109 c0 127 12 151 74 151 l36 0 0 50 c0 49 -1 50 -29 48 -16
-1 -44 -8 -63 -14z m67 -39 c0 -19 -5 -25 -21 -25 -63 0 -89 -49 -89 -169 0
-91 0 -91 -25 -89 -24 2 -25 4 -25 83 0 44 5 98 10 120 12 55 71 103 128 104
17 1 22 -5 22 -24z"/>
<path d="M1442 412 c4 -161 12 -182 85 -214 78 -35 184 -9 214 51 8 16 15 80
17 164 l4 137 -29 0 c-57 0 -63 -13 -66 -143 -2 -112 -3 -120 -26 -139 -17
-13 -33 -17 -50 -13 -49 12 -51 19 -51 161 l0 134 -51 0 -51 0 4 -138z m69 91
c0 -10 1 -62 2 -115 2 -79 6 -101 22 -123 11 -15 23 -26 26 -24 3 2 13 -2 21
-9 13 -10 22 -9 53 9 47 28 55 51 55 159 0 97 5 120 26 120 11 0 14 -26 14
-130 l0 -130 -39 -26 c-66 -43 -170 -32 -205 21 -11 16 -16 54 -17 126 -2 139
-2 139 21 139 12 0 20 -7 21 -17z"/>
<path d="M2497 405 c-43 -15 -65 -32 -27 -20 55 17 94 34 80 34 -8 0 -32 -6
-53 -14z"/>
<path d="M1833 374 c3 -11 8 -31 11 -46 5 -21 12 -28 31 -28 13 0 35 -11 49
-25 30 -30 85 -34 109 -7 25 27 7 42 -74 63 -41 11 -87 29 -103 40 -26 20 -28
20 -23 3z m152 -77 c28 -21 0 -32 -30 -13 -14 9 -25 19 -25 21 0 10 37 4 55
-8z"/>
<path d="M2528 377 c-49 -10 -69 -28 -23 -19 36 6 31 -14 -7 -35 -18 -9 -37
-18 -43 -19 -5 -2 -30 -7 -55 -13 -44 -10 -43 -10 15 -5 33 4 71 12 85 19 28
15 100 86 84 84 -5 -1 -30 -6 -56 -12z"/>
<path d="M2440 350 c0 -5 4 -10 9 -10 6 0 13 5 16 10 3 6 -1 10 -9 10 -9 0
-16 -4 -16 -10z"/>
<path d="M2305 250 c-13 -5 2 -7 40 -3 33 3 62 7 64 9 9 8 -85 2 -104 -6z"/>
<path d="M2280 220 c0 -5 -8 -11 -17 -13 -10 -3 -4 -5 12 -5 17 -1 44 5 60 12
l30 14 -42 0 c-24 0 -43 -4 -43 -8z"/>
</g>
</svg>
