<?xml version="1.0" standalone="no"?>
<!DOCTYPE svg PUBLIC "-//W3C//DTD SVG 20010904//EN"
 "http://www.w3.org/TR/2001/REC-SVG-20010904/DTD/svg10.dtd">
<svg version="1.0" xmlns="http://www.w3.org/2000/svg"
 width="861.000000pt" height="360.000000pt" viewBox="0 0 861.000000 360.000000"
 preserveAspectRatio="xMidYMid meet">
<metadata>
Created by potrace 1.10, written by Peter Selinger 2001-2011
</metadata>
<g transform="translate(0.000000,360.000000) scale(0.100000,-0.100000)"
fill="#09f970" stroke="none">
<path d="M5954 2695 c2 -60 7 -110 12 -110 9 0 9 17 -6 145 -8 72 -8 71 -6
-35z"/>
<path d="M5919 2592 c0 -7 -1 -37 -1 -67 0 -90 0 -89 17 -75 12 10 14 26 9 74
-6 55 -22 100 -25 68z"/>
<path d="M6067 2557 c-3 -8 -1 -20 4 -28 6 -10 9 -7 9 14 0 29 -5 35 -13 14z"/>
<path d="M6034 2470 c-4 -16 -13 -35 -20 -41 -8 -6 -14 -19 -14 -29 0 -10 -7
-23 -15 -30 -8 -7 -15 -25 -15 -40 0 -16 -7 -30 -15 -34 -8 -3 -15 -14 -15
-24 0 -27 -23 -45 -38 -30 -18 18 -15 85 4 92 13 5 16 17 12 61 -3 30 -8 58
-12 62 -12 13 -26 -20 -26 -63 0 -25 -6 -47 -15 -54 -9 -7 -15 -29 -15 -52 0
-22 -7 -46 -15 -54 -8 -9 -15 -30 -15 -48 0 -18 -7 -41 -15 -52 -8 -10 -15
-30 -15 -44 0 -14 -7 -34 -15 -44 -8 -11 -15 -29 -15 -41 0 -12 -7 -30 -15
-41 -8 -10 -15 -28 -15 -40 0 -11 -7 -29 -15 -40 -8 -10 -15 -29 -15 -40 0
-12 -7 -27 -15 -34 -8 -7 -15 -23 -15 -35 0 -12 -7 -28 -15 -35 -8 -7 -15 -20
-15 -29 0 -9 -6 -25 -14 -36 -18 -26 -30 -85 -18 -85 5 0 15 7 22 15 7 8 18
15 25 15 6 0 27 7 45 16 49 25 350 25 397 1 18 -10 41 -17 53 -17 11 0 23 -7
26 -15 4 -8 14 -15 23 -15 30 0 104 -76 126 -130 4 -8 13 -27 20 -41 8 -14 16
-46 17 -70 4 -62 -17 -70 -141 -58 l-94 10 -64 59 c-69 65 -77 68 -206 61 -75
-3 -97 -21 -97 -77 0 -40 2 -43 43 -63 24 -12 52 -21 63 -21 10 0 31 -6 45
-14 14 -7 51 -17 82 -20 31 -4 59 -12 62 -17 4 -5 20 -9 37 -9 16 0 42 -6 56
-14 15 -7 50 -24 77 -36 104 -48 147 -94 171 -186 29 -108 -14 -251 -98 -326
-17 -16 -37 -28 -44 -28 -8 0 -14 -4 -14 -9 0 -14 -78 -51 -107 -51 -14 0 -24
-3 -20 -6 3 -4 73 -6 154 -5 113 1 151 5 163 16 9 8 33 15 52 15 20 0 41 7 48
15 7 8 22 15 34 15 11 1 39 12 61 25 22 14 47 28 55 32 8 3 17 9 20 12 3 3 40
37 84 76 43 38 74 71 67 73 -6 2 -18 -4 -27 -12 -8 -9 -27 -16 -40 -16 -14 0
-35 -5 -47 -12 -40 -21 -167 -45 -167 -31 0 17 62 63 85 63 13 0 25 7 29 15 3
8 16 15 29 15 14 0 30 7 37 15 7 8 20 15 30 15 10 0 23 7 30 15 7 8 17 15 22
15 6 0 27 13 48 30 21 16 43 30 49 30 6 0 11 4 11 8 0 5 10 14 23 20 14 7 17
11 6 11 -8 1 -24 -6 -35 -14 -10 -8 -29 -15 -40 -15 -12 0 -27 -7 -34 -15 -7
-8 -20 -15 -30 -15 -10 0 -23 -7 -30 -15 -7 -8 -23 -15 -35 -15 -12 0 -28 -7
-35 -15 -15 -18 -36 -20 -45 -4 -9 13 42 59 93 85 20 10 40 23 43 27 7 10 42
31 77 46 12 6 22 15 22 20 0 5 11 12 25 15 14 4 25 11 25 16 0 20 -23 20 -66
0 -39 -19 -49 -21 -72 -10 -25 11 -25 13 -9 24 9 7 17 18 17 25 0 6 7 11 15
11 8 0 15 9 15 20 0 21 -33 29 -45 10 -3 -5 -13 -10 -21 -10 -8 0 -33 -14 -56
-30 -57 -42 -66 -38 -16 8 130 116 188 177 188 199 0 13 11 42 25 64 29 44 46
84 49 114 8 61 19 115 32 153 27 81 17 90 -42 38 -22 -19 -75 -65 -119 -103
-44 -37 -98 -85 -120 -105 -82 -75 -110 -98 -123 -98 -8 0 -10 5 -6 13 12 19
136 181 143 187 17 13 99 139 94 144 -4 3 -78 -66 -167 -154 -159 -157 -207
-200 -222 -200 -4 0 -16 -7 -26 -17 -10 -9 -18 -12 -18 -7 0 5 8 17 18 25 51
47 263 281 306 339 12 16 40 53 62 82 80 103 159 262 162 328 2 38 -15 75 -25
52 -2 -6 -10 -9 -16 -5 -7 4 -6 0 1 -10 21 -25 6 -36 -46 -33 -39 2 -47 6 -46
23 0 24 -39 25 -44 0 -2 -9 -12 -17 -23 -17 -15 0 -20 6 -17 23 2 12 9 21 17
19 19 -4 52 8 46 17 -9 15 -83 6 -104 -13 -21 -19 -21 -19 -21 2 0 12 -4 22
-10 22 -13 0 -50 -37 -50 -50 0 -6 -12 -23 -27 -38 -16 -15 -51 -56 -79 -92
-59 -76 -99 -120 -108 -120 -12 0 -6 32 9 46 8 9 15 24 15 35 0 10 5 19 10 19
6 0 10 9 10 19 0 11 4 22 9 25 5 4 19 27 31 54 12 26 28 59 36 74 21 39 18 55
-6 33 -11 -10 -20 -22 -20 -27 0 -23 -304 -395 -332 -406 -19 -8 -5 22 37 79
25 34 45 66 45 72 0 6 6 18 14 26 17 19 126 231 126 245 0 5 7 17 16 27 11 12
13 23 6 34 -8 16 -10 16 -15 1 -4 -9 -10 -16 -16 -16 -9 0 -23 33 -25 59 -1
18 -22 26 -31 12 -3 -6 -1 -11 5 -11 26 0 -1 -16 -31 -18 -21 -2 -39 4 -53 17
-13 12 -31 18 -46 16 -69 -11 -65 -13 -64 27 1 31 -2 36 -20 36 -12 -1 -38
-17 -58 -37 l-38 -35 0 53 c0 29 4 50 9 47 10 -7 21 17 21 45 0 30 -20 22 -26
-11z m776 -1395 c16 -19 14 -20 -27 -28 -38 -7 -40 -4 -15 22 21 24 26 25 42
6z"/>
<path d="M6250 2379 c0 -6 -7 -9 -15 -6 -8 4 -17 2 -20 -3 -4 -6 13 -10 39
-10 34 0 46 4 46 15 0 9 -9 15 -25 15 -14 0 -25 -5 -25 -11z"/>
<path d="M6700 2271 c0 -5 6 -14 14 -20 12 -10 13 -8 9 8 -5 21 -23 30 -23 12z"/>
<path d="M6867 2213 c-12 -12 -7 -19 12 -19 15 0 17 3 9 13 -12 15 -13 15 -21
6z"/>
<path d="M870 1837 l0 -103 128 1 127 0 3 63 c3 61 2 65 -32 96 -37 36 -74 46
-168 46 l-58 0 0 -103z"/>
<path d="M1615 1619 c-146 -53 -214 -127 -286 -309 -18 -45 -20 -399 -3 -421
7 -8 15 -30 19 -49 8 -39 56 -116 107 -171 66 -73 213 -129 336 -129 78 0 200
29 261 62 77 42 154 122 181 188 6 14 16 35 22 48 7 13 8 25 2 30 -5 4 -59 5
-121 2 -109 -5 -113 -6 -145 -37 -55 -53 -108 -74 -182 -74 -177 0 -262 141
-242 399 10 132 54 211 140 253 83 40 183 18 251 -57 l41 -44 111 0 c136 0
145 3 132 38 -47 126 -151 235 -246 258 -15 4 -34 11 -41 17 -7 6 -73 12 -145
14 -116 3 -139 1 -192 -18z"/>
<path d="M2765 1634 c-90 -24 -144 -53 -201 -109 -43 -41 -89 -128 -79 -145 4
-6 60 -10 128 -10 122 1 122 1 151 30 33 34 86 45 180 38 60 -5 123 -29 138
-52 17 -26 8 -87 -16 -109 -31 -29 -107 -55 -181 -62 -161 -17 -291 -62 -358
-124 -57 -52 -71 -95 -72 -216 0 -93 3 -117 22 -156 69 -146 241 -203 495
-164 156 24 237 68 302 163 63 92 69 127 70 428 1 185 -3 275 -10 285 -6 8
-14 25 -17 39 -7 30 -59 85 -101 108 -77 41 -139 53 -286 57 -80 2 -154 2
-165 -1z m325 -553 c20 -38 5 -194 -22 -227 -67 -80 -126 -113 -213 -117 -122
-5 -199 101 -148 204 21 42 49 66 88 75 17 3 35 10 40 14 6 5 36 11 68 15 31
4 59 11 62 15 3 5 23 11 45 15 22 4 42 11 46 16 9 15 23 10 34 -10z"/>
<path d="M875 1622 c-3 -3 -5 -243 -5 -534 l0 -529 128 3 127 3 0 495 0 495
-22 22 c-13 13 -42 27 -65 32 -51 12 -156 20 -163 13z"/>
<path d="M4089 1626 c-2 -3 -45 -10 -94 -16 -50 -6 -103 -16 -120 -22 -131
-48 -221 -122 -272 -223 -54 -105 -63 -182 -63 -509 l0 -292 128 0 127 1 6
300 c5 291 12 355 40 393 52 68 91 85 197 90 l92 4 0 127 c0 85 -4 131 -12
139 -13 13 -22 15 -29 8z"/>
<path d="M4344 1617 c-12 -7 -14 -62 -14 -330 0 -310 10 -477 28 -501 5 -6 12
-22 15 -36 8 -33 61 -91 112 -122 74 -45 222 -88 304 -88 106 0 287 60 358
117 39 33 83 130 93 206 5 40 10 226 10 415 l0 342 -67 0 c-88 0 -137 -14
-163 -47 -19 -25 -20 -39 -20 -324 0 -352 -6 -392 -69 -452 -22 -20 -49 -37
-60 -37 -11 0 -23 -4 -26 -10 -8 -12 -102 -13 -109 -1 -3 5 -18 12 -33 16 -31
7 -78 53 -96 93 -8 19 -13 139 -15 394 l-3 367 -115 3 c-64 2 -122 -1 -130 -5z"/>
<path d="M6975 1129 c-4 -6 -5 -13 -2 -16 7 -7 27 6 27 18 0 12 -17 12 -25 -2z"/>
<path d="M5515 1053 c8 -75 32 -137 55 -140 8 -1 46 -5 83 -8 64 -6 68 -8 73
-34 8 -36 54 -88 87 -96 15 -4 30 -11 33 -16 9 -16 149 -10 190 7 74 31 95 85
50 127 -44 40 -55 47 -76 47 -11 0 -37 7 -57 15 -19 8 -52 15 -72 15 -20 1
-47 7 -61 15 -14 8 -36 14 -48 15 -13 0 -38 6 -55 14 -18 7 -57 24 -87 37 -30
13 -65 34 -77 46 -38 40 -46 30 -38 -44z"/>
</g>
</svg>
